<svg width="48" height="46" viewBox="0 0 48 46" fill="none" xmlns="http://www.w3.org/2000/svg">
<rect width="48" height="46" rx="8" fill="black"/>
<path d="M28 16.5C28 20.6421 24.6421 24 20.5 24C16.3579 24 13 20.6421 13 16.5C13 12.3579 16.3579 9 20.5 9C24.6421 9 28 12.3579 28 16.5Z" fill="#8F3207"/>
<path d="M27 17.5C27 21.0899 24.0899 24 20.5 24C16.9101 24 14 21.0899 14 17.5C14 13.9101 16.9101 11 20.5 11C24.0899 11 27 13.9101 27 17.5Z" fill="#C53E00"/>
<path d="M26 18.5C26 21.5376 23.5376 24 20.5 24C17.4624 24 15 21.5376 15 18.5C15 15.4624 17.4624 13 20.5 13C23.5376 13 26 15.4624 26 18.5Z" fill="#FF5100"/>
<path d="M18.4 30V16H22.36V30H18.4ZM29.8373 30.18C28.4507 30.18 27.3707 29.84 26.5973 29.16C25.824 28.4667 25.4373 27.4267 25.4373 26.04V16.74H29.2373V26C29.2373 26.3867 29.344 26.6933 29.5573 26.92C29.7707 27.1333 30.044 27.24 30.3773 27.24C30.8307 27.24 31.2173 27.1267 31.5373 26.9L32.4773 29.56C32.1573 29.7733 31.764 29.9267 31.2973 30.02C30.8307 30.1267 30.344 30.18 29.8373 30.18ZM23.8573 22.4V19.56H31.7173V22.4H23.8573Z" fill="white"/>
</svg>
