<svg width="152" height="52" viewBox="0 0 152 52" fill="none" xmlns="http://www.w3.org/2000/svg">
<rect x="73" width="36" height="36" rx="8" fill="black"/>
<path d="M96 12C96 16.9706 91.9706 21 87 21C82.0294 21 78 16.9706 78 12C78 7.02944 82.0294 3 87 3C91.9706 3 96 7.02944 96 12Z" fill="#8F3207"/>
<path d="M94.8 13.1748C94.8 17.4826 91.3078 20.9748 87 20.9748C82.6922 20.9748 79.2 17.4826 79.2 13.1748C79.2 8.86693 82.6922 5.37476 87 5.37476C91.3078 5.37476 94.8 8.86693 94.8 13.1748Z" fill="#C53E00"/>
<path d="M93.6 14.3495C93.6 17.9945 90.6451 20.9495 87 20.9495C83.3549 20.9495 80.4 17.9945 80.4 14.3495C80.4 10.7044 83.3549 7.74945 87 7.74945C90.6451 7.74945 93.6 10.7044 93.6 14.3495Z" fill="#FF5100"/>
<path d="M83.75 28V10.5H88.7V28H83.75ZM98.0467 28.225C96.3133 28.225 94.9633 27.8 93.9967 26.95C93.03 26.0833 92.5467 24.7833 92.5467 23.05V11.425H97.2967V23C97.2967 23.4833 97.43 23.8667 97.6967 24.15C97.9633 24.4167 98.305 24.55 98.7217 24.55C99.2883 24.55 99.7717 24.4083 100.172 24.125L101.347 27.45C100.947 27.7167 100.455 27.9083 99.8717 28.025C99.2883 28.1583 98.68 28.225 98.0467 28.225ZM90.5717 18.5V14.95H100.397V18.5H90.5717Z" fill="white"/>
<path d="M7.29 30.18C5.97 30.18 4.71 30 3.51 29.64C2.33 29.28 1.4 28.84 0.72 28.32L1.92 26.04C2.6 26.5 3.44 26.89 4.44 27.21C5.44 27.53 6.46 27.69 7.5 27.69C8.84 27.69 9.8 27.5 10.38 27.12C10.98 26.74 11.28 26.21 11.28 25.53C11.28 25.03 11.1 24.64 10.74 24.36C10.38 24.08 9.9 23.87 9.3 23.73C8.72 23.59 8.07 23.47 7.35 23.37C6.63 23.25 5.91 23.11 5.19 22.95C4.47 22.77 3.81 22.53 3.21 22.23C2.61 21.91 2.13 21.48 1.77 20.94C1.41 20.38 1.23 19.64 1.23 18.72C1.23 17.76 1.5 16.92 2.04 16.2C2.58 15.48 3.34 14.93 4.32 14.55C5.32 14.15 6.5 13.95 7.86 13.95C8.9 13.95 9.95 14.08 11.01 14.34C12.09 14.58 12.97 14.93 13.65 15.39L12.42 17.67C11.7 17.19 10.95 16.86 10.17 16.68C9.39 16.5 8.61 16.41 7.83 16.41C6.57 16.41 5.63 16.62 5.01 17.04C4.39 17.44 4.08 17.96 4.08 18.6C4.08 19.14 4.26 19.56 4.62 19.86C5 20.14 5.48 20.36 6.06 20.52C6.66 20.68 7.32 20.82 8.04 20.94C8.76 21.04 9.48 21.18 10.2 21.36C10.92 21.52 11.57 21.75 12.15 22.05C12.75 22.35 13.23 22.77 13.59 23.31C13.97 23.85 14.16 24.57 14.16 25.47C14.16 26.43 13.88 27.26 13.32 27.96C12.76 28.66 11.97 29.21 10.95 29.61C9.93 29.99 8.71 30.18 7.29 30.18ZM23.2193 30.18C21.6193 30.18 20.3793 29.75 19.4993 28.89C18.6193 28.03 18.1793 26.8 18.1793 25.2V10.62H21.0593V25.08C21.0593 25.94 21.2693 26.6 21.6893 27.06C22.1293 27.52 22.7493 27.75 23.5493 27.75C24.4493 27.75 25.1993 27.5 25.7993 27L26.6993 29.07C26.2593 29.45 25.7293 29.73 25.1093 29.91C24.5093 30.09 23.8793 30.18 23.2193 30.18ZM15.4793 16.47V14.1H25.6193V16.47H15.4793ZM40.0512 30V26.64L39.9012 26.01V20.28C39.9012 19.06 39.5412 18.12 38.8212 17.46C38.1212 16.78 37.0612 16.44 35.6412 16.44C34.7012 16.44 33.7812 16.6 32.8812 16.92C31.9812 17.22 31.2212 17.63 30.6012 18.15L29.4012 15.99C30.2212 15.33 31.2012 14.83 32.3412 14.49C33.5012 14.13 34.7112 13.95 35.9712 13.95C38.1512 13.95 39.8312 14.48 41.0112 15.54C42.1912 16.6 42.7812 18.22 42.7812 20.4V30H40.0512ZM34.8312 30.18C33.6512 30.18 32.6112 29.98 31.7112 29.58C30.8312 29.18 30.1512 28.63 29.6712 27.93C29.1912 27.21 28.9512 26.4 28.9512 25.5C28.9512 24.64 29.1512 23.86 29.5512 23.16C29.9712 22.46 30.6412 21.9 31.5612 21.48C32.5012 21.06 33.7612 20.85 35.3412 20.85H40.3812V22.92H35.4612C34.0212 22.92 33.0512 23.16 32.5512 23.64C32.0512 24.12 31.8012 24.7 31.8012 25.38C31.8012 26.16 32.1112 26.79 32.7312 27.27C33.3512 27.73 34.2112 27.96 35.3112 27.96C36.3912 27.96 37.3312 27.72 38.1312 27.24C38.9512 26.76 39.5412 26.06 39.9012 25.14L40.4712 27.12C40.0912 28.06 39.4212 28.81 38.4612 29.37C37.5012 29.91 36.2912 30.18 34.8312 30.18ZM48.1109 30V14.1H50.8709V18.42L50.6009 17.34C51.0409 16.24 51.7809 15.4 52.8209 14.82C53.8609 14.24 55.1409 13.95 56.6609 13.95V16.74C56.5409 16.72 56.4209 16.71 56.3009 16.71C56.2009 16.71 56.1009 16.71 56.0009 16.71C54.4609 16.71 53.2409 17.17 52.3409 18.09C51.4409 19.01 50.9909 20.34 50.9909 22.08V30H48.1109ZM66.315 30.18C64.715 30.18 63.475 29.75 62.595 28.89C61.715 28.03 61.275 26.8 61.275 25.2V10.62H64.155V25.08C64.155 25.94 64.365 26.6 64.785 27.06C65.225 27.52 65.845 27.75 66.645 27.75C67.545 27.75 68.295 27.5 68.895 27L69.795 29.07C69.355 29.45 68.825 29.73 68.205 29.91C67.605 30.09 66.975 30.18 66.315 30.18ZM58.575 16.47V14.1H68.715V16.47H58.575Z" fill="#FF5900"/>
</svg>
