<svg width="126" height="29" viewBox="0 0 126 29" fill="none" xmlns="http://www.w3.org/2000/svg">
<path d="M9.72 28.24C7.96 28.24 6.28 28 4.68 27.52C3.10667 27.04 1.86667 26.4533 0.96 25.76L2.56 22.72C3.46667 23.3333 4.58667 23.8533 5.92 24.28C7.25333 24.7067 8.61333 24.92 10 24.92C11.7867 24.92 13.0667 24.6667 13.84 24.16C14.64 23.6533 15.04 22.9467 15.04 22.04C15.04 21.3733 14.8 20.8533 14.32 20.48C13.84 20.1067 13.2 19.8267 12.4 19.64C11.6267 19.4533 10.76 19.2933 9.8 19.16C8.84 19 7.88 18.8133 6.92 18.6C5.96 18.36 5.08 18.04 4.28 17.64C3.48 17.2133 2.84 16.64 2.36 15.92C1.88 15.1733 1.64 14.1867 1.64 12.96C1.64 11.68 2 10.56 2.72 9.6C3.44 8.64 4.45333 7.90667 5.76 7.4C7.09333 6.86667 8.66667 6.6 10.48 6.6C11.8667 6.6 13.2667 6.77333 14.68 7.12C16.12 7.44 17.2933 7.90667 18.2 8.52L16.56 11.56C15.6 10.92 14.6 10.48 13.56 10.24C12.52 10 11.48 9.88 10.44 9.88C8.76 9.88 7.50667 10.16 6.68 10.72C5.85333 11.2533 5.44 11.9467 5.44 12.8C5.44 13.52 5.68 14.08 6.16 14.48C6.66667 14.8533 7.30667 15.1467 8.08 15.36C8.88 15.5733 9.76 15.76 10.72 15.92C11.68 16.0533 12.64 16.24 13.6 16.48C14.56 16.6933 15.4267 17 16.2 17.4C17 17.8 17.64 18.36 18.12 19.08C18.6267 19.8 18.88 20.76 18.88 21.96C18.88 23.24 18.5067 24.3467 17.76 25.28C17.0133 26.2133 15.96 26.9467 14.6 27.48C13.24 27.9867 11.6133 28.24 9.72 28.24ZM30.9591 28.24C28.8257 28.24 27.1724 27.6667 25.9991 26.52C24.8257 25.3733 24.2391 23.7333 24.2391 21.6V2.16H28.0791V21.44C28.0791 22.5867 28.3591 23.4667 28.9191 24.08C29.5057 24.6933 30.3324 25 31.3991 25C32.5991 25 33.5991 24.6667 34.3991 24L35.5991 26.76C35.0124 27.2667 34.3057 27.64 33.4791 27.88C32.6791 28.12 31.8391 28.24 30.9591 28.24ZM20.6391 9.96V6.8H34.1591V9.96H20.6391ZM53.4016 28V23.52L53.2016 22.68V15.04C53.2016 13.4133 52.7216 12.16 51.7616 11.28C50.8282 10.3733 49.4149 9.92 47.5216 9.92C46.2682 9.92 45.0416 10.1333 43.8416 10.56C42.6416 10.96 41.6282 11.5067 40.8016 12.2L39.2016 9.32C40.2949 8.44 41.6016 7.77333 43.1216 7.32C44.6682 6.84 46.2816 6.6 47.9616 6.6C50.8682 6.6 53.1082 7.30667 54.6816 8.72C56.2549 10.1333 57.0416 12.2933 57.0416 15.2V28H53.4016ZM46.4416 28.24C44.8682 28.24 43.4816 27.9733 42.2816 27.44C41.1082 26.9067 40.2016 26.1733 39.5616 25.24C38.9216 24.28 38.6016 23.2 38.6016 22C38.6016 20.8533 38.8682 19.8133 39.4016 18.88C39.9616 17.9467 40.8549 17.2 42.0816 16.64C43.3349 16.08 45.0149 15.8 47.1216 15.8H53.8416V18.56H47.2816C45.3616 18.56 44.0682 18.88 43.4016 19.52C42.7349 20.16 42.4016 20.9333 42.4016 21.84C42.4016 22.88 42.8149 23.72 43.6416 24.36C44.4682 24.9733 45.6149 25.28 47.0816 25.28C48.5216 25.28 49.7749 24.96 50.8416 24.32C51.9349 23.68 52.7216 22.7467 53.2016 21.52L53.9616 24.16C53.4549 25.4133 52.5616 26.4133 51.2816 27.16C50.0016 27.88 48.3882 28.24 46.4416 28.24ZM64.1478 28V6.8H67.8278V12.56L67.4678 11.12C68.0545 9.65333 69.0411 8.53333 70.4278 7.76C71.8145 6.98667 73.5211 6.6 75.5478 6.6V10.32C75.3878 10.2933 75.2278 10.28 75.0678 10.28C74.9345 10.28 74.8011 10.28 74.6678 10.28C72.6145 10.28 70.9878 10.8933 69.7878 12.12C68.5878 13.3467 67.9878 15.12 67.9878 17.44V28H64.1478ZM88.42 28.24C86.2867 28.24 84.6333 27.6667 83.46 26.52C82.2867 25.3733 81.7 23.7333 81.7 21.6V2.16H85.54V21.44C85.54 22.5867 85.82 23.4667 86.38 24.08C86.9667 24.6933 87.7933 25 88.86 25C90.06 25 91.06 24.6667 91.86 24L93.06 26.76C92.4733 27.2667 91.7667 27.64 90.94 27.88C90.14 28.12 89.3 28.24 88.42 28.24ZM78.1 9.96V6.8H91.62V9.96H78.1Z" fill="white"/>
<path d="M96.8625 28V-1.90735e-06H104.783V28H96.8625ZM119.737 28.36C116.964 28.36 114.804 27.68 113.257 26.32C111.711 24.9333 110.937 22.8533 110.937 20.08V1.48H118.537V20C118.537 20.7733 118.751 21.3867 119.177 21.84C119.604 22.2667 120.151 22.48 120.817 22.48C121.724 22.48 122.497 22.2533 123.137 21.8L125.017 27.12C124.377 27.5467 123.591 27.8533 122.657 28.04C121.724 28.2533 120.751 28.36 119.737 28.36ZM107.777 12.8V7.12H123.497V12.8H107.777Z" fill="#FF5900"/>
</svg>
